# xmcd CD database file
#
# Track frame offsets:
#	150
#	16487
#	31313
#	42964
#	58033
#	77944
#	91960
#	105355
#	119386
#	133330
#	147665
#	164947
#	179278
#	194431
#	206312
#	217322
#	229358
#	241483
#	253893
#	269286
#
# Disc length: 3819 seconds
#
# Revision: 0
# Processed by: cddbd v1.4PL0 Copyright (c) Steve Scherf et al.
# Submitted via: CDex 1.50Beta7
#
DISCID=390ee914
DTITLE=Milionario e Jose Rico - As Vinte Mais
DYEAR=1900
DGENRE=Country
TTITLE0=Viva a vida
TTITLE1=A gangorra
TTITLE2=O tropeiro
TTITLE3=Corpo e alma
TTITLE4=Sonhei com voce
TTITLE5=Cancao de um amor distante
TTITLE6=Ilusao perdida
TTITLE7=A fossa
TTITLE8=Va por inferno com seu amor
TTITLE9=Agora e outro
TTITLE10=Orgulhosa e bonita
TTITLE11=Faz um ano
TTITLE12=Jogo do amor
TTITLE13=Nasci para te amar
TTITLE14=Lagrimas que choram
TTITLE15=Amor com amor se paga
TTITLE16=Destino cruel
TTITLE17=Aguas da saudades
TTITLE18=Berco de Deus
TTITLE19=Mensagem do alem
EXTD=
EXTT0=
EXTT1=
EXTT2=
EXTT3=
EXTT4=
EXTT5=
EXTT6=
EXTT7=
EXTT8=
EXTT9=
EXTT10=
EXTT11=
EXTT12=
EXTT13=
EXTT14=
EXTT15=
EXTT16=
EXTT17=
EXTT18=
EXTT19=
PLAYORDER=
